<svg xmlns="http://www.w3.org/2000/svg" viewBox="0 0 960 760" role="img" aria-labelledby="title desc"><title id="title">Ross Tax Pro Software Co.</title><desc id="desc">Navy and gold enterprise tax software brand mark.</desc><defs><linearGradient id="gold" x1="0" x2="1"><stop stop-color="#8f6710"/><stop offset=".5" stop-color="#e0be4f"/><stop offset="1" stop-color="#9a7115"/></linearGradient><linearGradient id="navy" x1="0" y1="0" x2="1" y2="1"><stop stop-color="#03101f"/><stop offset="1" stop-color="#123d6a"/></linearGradient><filter id="shadow"><feDropShadow dx="0" dy="18" stdDeviation="18" flood-opacity=".18"/></filter></defs><rect width="960" height="760" rx="52" fill="#fffaf1"/><g filter="url(#shadow)" transform="translate(180 75)"><path fill="url(#navy)" d="M105 0h390v105H225v110h225v105H225v120h270v105H105z"/><path fill="url(#gold)" d="M0 0h210c94 0 170 76 170 170 0 65-36 122-90 151l120 224H278L178 350H120v195H0zm120 105v140h90c39 0 70-31 70-70s-31-70-70-70z"/><rect x="55" y="142" width="88" height="118" rx="10" fill="#071a33" stroke="#e0be4f" stroke-width="8"/><path d="M99 160v78M70 192h58M76 192l-14 29h28zm46 0-14 29h28z" fill="none" stroke="#e0be4f" stroke-width="7" stroke-linecap="round" stroke-linejoin="round"/><rect x="360" y="350" width="94" height="145" rx="12" fill="#071a33" stroke="#e0be4f" stroke-width="8"/><path d="M383 385h48M383 412h48M383 439h48" stroke="#e0be4f" stroke-width="8" stroke-linecap="round"/></g><text x="480" y="650" text-anchor="middle" font-family="Georgia,serif" font-size="78" font-weight="700" fill="#a98214" letter-spacing="4">ROSS TAX PRO</text><text x="480" y="710" text-anchor="middle" font-family="Arial,sans-serif" font-size="34" font-weight="700" fill="#071a33" letter-spacing="10">SOFTWARE CO.</text></svg>